<svg xmlns="http://www.w3.org/2000/svg" width="500" height="500" viewBox="0 0 500 500"><g transform="translate(87.31343283582088,109.82318245430292)translate(162.38729431380034,140.12502257881872)rotate(0)translate(-162.38729431380034,-140.12502257881872)" opacity="1"><path transform="translate(72,223.34481295959944)rotate(0)" d="M72.94 30.83L72.94 30.83L72.94 30.83Q52.00 30.83 38.54 26.12L38.54 26.12L38.54 26.12Q25.08 21.40 17.37 13.58L17.37 13.58L17.37 13.58Q9.66 5.75 6.79-4.37L6.79-4.37L6.79-4.37Q3.91-14.50 3.91-25.31L3.91-25.31L3.91-55.68L3.91-55.68Q3.91-58.67 4.72-60.86L4.72-60.86L4.72-60.86Q5.52-63.04 6.90-64.19L6.90-64.19L36.81-89.27L36.81-89.27Q37.96-90.19 39.81-90.77L39.81-90.77L39.81-90.77Q41.65-91.34 44.18-91.34L44.18-91.34L77.54-91.34L77.54-91.34Q80.07-91.34 82.03-90.77L82.03-90.77L82.03-90.77Q83.98-90.19 85.36-89.04L85.36-89.04L85.36-132.30L85.36-132.30Q85.36-135.29 86.17-137.36L86.17-137.36L86.17-137.36Q86.97-139.43 88.58-140.81L88.58-140.81L118.27-165.89L118.27-165.89Q119.42-166.81 121.37-167.39L121.37-167.39L121.37-167.39Q123.33-167.96 125.63-167.96L125.63-167.96L161.75-167.96L161.75-167.96Q167.27-167.96 169.81-165.43L169.81-165.43L169.81-165.43Q172.34-162.90 172.34-157.38L172.34-157.38L172.34-43.49L172.34-43.49Q172.34-32.67 169.23-23.58L169.23-23.58L169.23-23.58Q166.12-14.50 158.30-8.05L158.30-8.05L128.62 17.03L128.62 17.03Q120.80 23.47 107.45 27.15L107.45 27.15L107.45 27.15Q94.11 30.83 72.94 30.83ZM170.04-43.49L170.04-43.49L170.04-157.38L170.04-157.38Q170.04-161.75 168.08-163.71L168.08-163.71L168.08-163.71Q166.12-165.66 161.75-165.66L161.75-165.66L125.63-165.66L125.63-165.66Q121.26-165.66 119.30-163.71L119.30-163.71L119.30-163.71Q117.34-161.75 117.34-157.38L117.34-157.38L117.34-52.69L117.34-52.69Q117.34-48.09 114.70-44.98L114.70-44.98L114.70-44.98Q112.05-41.88 102.16-41.88L102.16-41.88L102.16-41.88Q91.58-41.88 88.70-44.98L88.70-44.98L88.70-44.98Q85.82-48.09 85.82-52.69L85.82-52.69L85.82-80.76L85.82-80.76Q85.82-85.13 83.87-87.09L83.87-87.09L83.87-87.09Q81.91-89.04 77.54-89.04L77.54-89.04L44.18-89.04L44.18-89.04Q39.81-89.04 37.85-87.09L37.85-87.09L37.85-87.09Q35.89-85.13 35.89-80.76L35.89-80.76L35.89-43.49L35.89-43.49Q35.89-32.90 38.77-24.27L38.77-24.27L38.77-24.27Q41.65-15.65 49.12-9.55L49.12-9.55L49.12-9.55Q56.60-3.45 69.60 0L69.60 0L69.60 0Q82.60 3.45 102.62 3.45L102.62 3.45L102.62 3.45Q122.87 3.45 135.98 0L135.98 0L135.98 0Q149.10-3.45 156.57-9.55L156.57-9.55L156.57-9.55Q164.05-15.65 167.04-24.27L167.04-24.27L167.04-24.27Q170.04-32.90 170.04-43.49ZM142.42-49.01L142.42-144.96L144.73-144.96L144.73-49.01L144.73-49.01Q144.73-35.43 136.10-26.69L136.10-26.69L136.10-26.69Q127.47-17.95 103.08-17.95L103.08-17.95L103.08-17.95Q90.19-17.95 81.80-20.25L81.80-20.25L81.80-20.25Q73.40-22.55 68.57-26.58L68.57-26.58L68.57-26.58Q63.73-30.60 61.78-36.35L61.78-36.35L61.78-36.35Q59.82-42.11 59.82-49.01L59.82-49.01L59.82-67.19L62.12-67.19L62.12-49.01L62.12-49.01Q62.12-35.89 70.75-28.07L70.75-28.07L70.75-28.07Q79.38-20.25 103.08-20.25L103.08-20.25L103.08-20.25Q125.86-20.25 134.14-28.19L134.14-28.19L134.14-28.19Q142.42-36.12 142.42-49.01L142.42-49.01Z" fill="#000000"/></g></svg>